<svg xmlns="http://www.w3.org/2000/svg" viewBox="0 0 64 64">
  <defs>
    <linearGradient id="grad" x1="0%" y1="0%" x2="100%" y2="100%">
      <stop offset="0%" stop-color="#25F4EE" />
      <stop offset="100%" stop-color="#FE2C55" />
    </linearGradient>
  </defs>
  <path fill="#000" d="M36 8h10c0 6 5 12 12 13v10c-5 0-9-1-12-3v20c0 8-7 14-16 14S14 56 14 48s7-14 16-14c1.9 0 3.7.3 5.4.9V24h-6v-8h6V8z"/>
  <path fill="#25F4EE" fill-opacity="0.9" d="M30 32v11.5c-1.4-.9-3.1-1.5-5-1.5-4.3 0-7.8 3.2-7.8 7 0 3.9 3.5 7 7.8 7 4.3 0 7.8-3.1 7.8-7V23.5h7.1c2.4 4 6.2 7 10.9 8.3v6.3c-3.5-.8-6.8-2.4-9.6-4.6V50c0 8-7 14-16 14S13 58 13 50s7-14 16-14c.3 0 .7 0 1 0V32h0z"/>
  <path fill="url(#grad)" d="M48 18.5C44.3 16.1 41.5 12.3 40.6 8H32v32c0 6.6-5.7 12-12.8 12S6.4 46.6 6.4 40 12.1 28 19.2 28c2.2 0 4.2.5 6.1 1.3V22c-1.9-.5-3.9-.8-6-.8C9.2 21.2 0 30 0 40.4 0 50.8 9.2 60 19.6 60S39.2 50.8 39.2 40.4V28c3.3 2.2 7.2 3.6 11.4 3.6V18.5z" opacity="0.35"/>
</svg>
